<svg xmlns="http://www.w3.org/2000/svg" xmlns:xlink="http://www.w3.org/1999/xlink" viewBox="0 0 394.92 95.28"><defs><linearGradient id="a" x1="0.02" y1="509.25" x2="47.33" y2="579.11" gradientTransform="matrix(1, 0, 0, -1, 0, 598)" gradientUnits="userSpaceOnUse"><stop offset="0" stop-color="#133139"/><stop offset="0.34" stop-color="#2d727e"/><stop offset="0.69" stop-color="#318f87"/><stop offset="1" stop-color="#9fb15a"/></linearGradient><linearGradient id="b" x1="16.41" y1="498.15" x2="63.72" y2="568.01" xlink:href="#a"/><linearGradient id="c" x1="28.31" y1="490.09" x2="75.62" y2="559.95" xlink:href="#a"/><linearGradient id="d" x1="-7.57" y1="514.38" x2="39.74" y2="584.25" xlink:href="#a"/><linearGradient id="e" x1="14.86" y1="499.19" x2="62.17" y2="569.06" xlink:href="#a"/><linearGradient id="f" x1="34.8" y1="485.69" x2="82.11" y2="555.56" xlink:href="#a"/><linearGradient id="g" x1="50.34" y1="475.17" x2="97.65" y2="545.04" xlink:href="#a"/></defs><title>Keymetrics (1)</title><path d="M140.22,71.16H128L114.22,49l18.4-19.6h11.8l-18.6,19.4,14.4,22.4h0Zm-29.4,0,5.9-41.8h-10l-5.9,41.8h10Zm60.9-13.1,1.1-7.6c0.6-4.2-.2-7.1-2.3-8.7s-5.6-2.4-10.4-2.4c-5.1,0-9.1.9-11.9,2.6s-4.5,4.6-5.1,8.6l-1.6,11.2c-1,6.7,4.1,10.1,15.1,10.1a64.34,64.34,0,0,0,12.4-1.2l0.8-6a49.11,49.11,0,0,1-10.6,1.4c-3.4,0-5.7-.4-6.8-1.2a3.61,3.61,0,0,1-1.3-3.8l0.4-2.8h20.2v-0.2Zm-8.2-5.4h-11.3l0.6-4.5a3,3,0,0,1,1.5-2.3,10.13,10.13,0,0,1,4.7-.8,8.09,8.09,0,0,1,4.2.8,2.36,2.36,0,0,1,.9,2.3l-0.6,4.5h0ZM208,40l-23.4,44.5h-9.5l7.6-13.6-8-30.9h10.2l3.9,22,9.5-22H208Zm45.2,31.2,3.2-22.9c0.4-3,0-5.2-1.3-6.7s-4-2.2-8-2.2a22.79,22.79,0,0,0-7.2,1,6.33,6.33,0,0,0-4.1,3.2c-0.9-2.8-3.9-4.2-9.1-4.2-6.4,0-10.1,1.5-11.1,4.4l0.5-3.8h-5.7L206,71.16h5.8l3.2-22.5c0.3-2,1-3.4,2.3-4.1s3.6-1.1,7-1.1a11.21,11.21,0,0,1,3.5.4,3.9,3.9,0,0,1,1.9,1.2,5.23,5.23,0,0,1,.6,1.6,6.37,6.37,0,0,1-.1,1.9L227,71.06h5.8l3.2-22.5a6.13,6.13,0,0,1,2-4.1c1.1-.7,3.3-1.1,6.7-1.1a11.91,11.91,0,0,1,3.6.4,3.47,3.47,0,0,1,1.9,1.2,5.23,5.23,0,0,1,.6,1.6,6.37,6.37,0,0,1-.1,1.9L247.52,71h5.7v0.2Zm34.5-14.3h-20.9l-0.7,4.7c-0.3,2.2.2,3.7,1.7,4.7s3.6,1.4,6.7,1.4a47,47,0,0,0,10.7-1.5l-0.6,4.4a51.8,51.8,0,0,1-11.4,1.3c-9.5,0-13.8-3.2-12.9-9.5l1.7-12.3c0.5-3.8,2-6.5,4.4-8.2s6-2.4,10.8-2.4c4.5,0,7.7.8,9.5,2.3s2.5,4.3,1.9,8.3l-0.9,6.8h0Zm-5.2-3.8,0.7-4.9q0.45-2.85-1.2-3.9c-1.1-.7-2.9-1.1-5.6-1.1a13.34,13.34,0,0,0-5.9,1,4.74,4.74,0,0,0-2.4,3.9l-0.7,4.9h15.1v0.1Zm28.4,18.2a46.51,46.51,0,0,1-6.6.5c-3.9,0-6.5-.7-7.9-2s-1.8-3.9-1.2-7.7l2.6-18.3h-7l0.5-3.8h7l1.4-9.7h5.9l-1.4,9.7h11.1l-0.5,3.8h-11.1l-2.6,18.6c-0.3,2.2-.1,3.7.7,4.5s2.4,1.1,5.1,1.1c0.7,0,2.3-.2,4.7-0.5l-0.7,3.8h0Zm23.8-27,0.7-5h-2.8a12.37,12.37,0,0,0-5.9,1.7c-2,1.2-3.2,2.5-3.4,4l0.7-5.1h-5.5l-4.4,31.2h5.8l3.1-21.9a5,5,0,0,1,2.4-3.9,13.82,13.82,0,0,1,6-1h3.3Zm9.7-9.5h-5.8l0.9-6.1h5.8l-0.9,6.1h0Zm-5.1,36.4h-5.8l4.4-31.2h5.8l-4.4,31.2h0Zm29.4-.3a50.52,50.52,0,0,1-10.1.9c-1.9,0-3.4,0-4.4-.1a28.59,28.59,0,0,1-3.5-.6,6.13,6.13,0,0,1-2.9-1.6,7,7,0,0,1-1.4-3,13,13,0,0,1-.1-4.9l1.6-11.5a16.63,16.63,0,0,1,1.1-4.4,8.14,8.14,0,0,1,1.9-3,13.29,13.29,0,0,1,2.4-1.9,8.08,8.08,0,0,1,3.1-1c1.3-.2,2.4-0.3,3.4-0.4s2.3-.1,3.9-0.1a35.72,35.72,0,0,1,8.7,1l-0.6,4.2a34.88,34.88,0,0,0-9.4-1.3c-3.2,0-5.4.4-6.4,1.2s-1.8,2.4-2.1,4.9L352.12,62c-0.3,2.3,0,3.8,1,4.5s3.2,1.1,6.6,1.1a42,42,0,0,0,9.6-1.2l-0.6,4.5h0Zm28.8-10.7c0.7-4.9-2.2-7.3-8.8-7.3h-3.6c-3.8,0-5.6-1.1-5.3-3.2l0.4-2.6a3.74,3.74,0,0,1,2.1-3c1.2-.6,3.3-0.9,6.4-0.9,2.8,0,3,.3,6.6.9l0.6-4.2c-5.2-.3-5.4-0.5-6.4-0.5-9.3,0-14.3,2.4-14.9,7.3l-0.4,2.9c-0.3,2.4.2,4.2,1.7,5.6s3.9,2,7.1,2h3.5a9.08,9.08,0,0,1,4.3.8,2.67,2.67,0,0,1,.9,2.8l-0.4,3.2a3.57,3.57,0,0,1-2.4,3.1,18.19,18.19,0,0,1-5.9.7,77.49,77.49,0,0,1-10.6-1.2l-0.6,4.4a79.18,79.18,0,0,0,10.6.8c4.4,0,7.8-.6,10.3-1.9s4-3.6,4.5-7Z" transform="translate(-3 -3.22)" fill="#141115"/><path d="M31.22,36.36L66,9.46A3.49,3.49,0,1,0,61.72,4l-34.8,26.9a3.5,3.5,0,0,0-.6,4.9A3.7,3.7,0,0,0,31.22,36.36Z" transform="translate(-3 -3.22)" fill="url(#a)"/><path d="M62.72,23.26a3.5,3.5,0,0,0,4.9.6l17.9-13.8a3.49,3.49,0,0,0-4.3-5.5l-17.9,13.8A3.48,3.48,0,0,0,62.72,23.26Z" transform="translate(-3 -3.22)" fill="url(#b)"/><path d="M65.72,92.26l-34.8-26.9a3.49,3.49,0,1,0-4.3,5.5l34.8,26.9A3.49,3.49,0,1,0,65.72,92.26Z" transform="translate(-3 -3.22)" fill="url(#c)"/><path d="M19.62,45.16a3.61,3.61,0,0,0,.7-4.9h0a3.61,3.61,0,0,0-4.9-.7l-9.9,7.6a1.56,1.56,0,0,0-.8.6l-0.7.5a2.73,2.73,0,0,0-1,2.3,2.51,2.51,0,0,0,1,2.3l0.7,0.5a1.56,1.56,0,0,0,.8.6l9.9,7.6a3.5,3.5,0,0,0,4.2-5.6l-6.3-4.8a0.85,0.85,0,0,1,0-1.3Z" transform="translate(-3 -3.22)" fill="url(#d)"/><path d="M52.22,74.46a3.5,3.5,0,1,0,4.2-5.6l-23.2-17.6a0.85,0.85,0,0,1,0-1.3l23.2-17.7a3.5,3.5,0,1,0-4.2-5.6l-26.8,20.5a1.56,1.56,0,0,0-.8.6l-0.7.5a2.73,2.73,0,0,0-1,2.3,2.51,2.51,0,0,0,1,2.3l0.7,0.5a1.56,1.56,0,0,0,.8.6Z" transform="translate(-3 -3.22)" fill="url(#e)"/><path d="M87.42,74.86l-30.9-23.5a0.85,0.85,0,0,1,0-1.3l31-23.6a3.61,3.61,0,0,0,.7-4.9h0a3.61,3.61,0,0,0-4.9-.7l-34.7,26.4a1.56,1.56,0,0,0-.8.6l-0.7.5a2.73,2.73,0,0,0-1,2.3,2.51,2.51,0,0,0,1,2.3l0.7,0.5a1.56,1.56,0,0,0,.8.6l34.5,26.3a3.43,3.43,0,0,0,4.9-.7A3.37,3.37,0,0,0,87.42,74.86Z" transform="translate(-3 -3.22)" fill="url(#f)"/><path d="M85,92.16l-17.9-13.8a3.49,3.49,0,0,0-4.3,5.5l17.9,13.8A3.49,3.49,0,1,0,85,92.16Z" transform="translate(-3 -3.22)" fill="url(#g)"/><path d="M396.92,59.7c0.6,0-1.9.2-1.4,0.7a2.36,2.36,0,0,1,.7,1.6,2,2,0,0,1-.7,1.6c-0.4.4,2,.7,1.4,0.7a2,2,0,0,1-1.6-.7,2.36,2.36,0,0,1-.7-1.6,2.13,2.13,0,0,1,.7-1.6A2,2,0,0,1,396.92,59.7Zm0,4.2c0.5,0-2-.2-1.6-0.6a1.82,1.82,0,0,0,.6-1.4,2,2,0,0,0-.6-1.4c-0.4-.4,2.2-0.6,1.6-0.6a2,2,0,0,0-1.4.6,1.82,1.82,0,0,0-.6,1.4,2,2,0,0,0,.6,1.4A1.82,1.82,0,0,0,396.92,63.9Zm0.5-1.9h0a0.54,0.54,0,0,1,.4.4l-2.7.8h2.6l-0.3-.8a0.42,0.42,0,0,0-.4-0.3h-0.7v1.1h-0.4V60.6H397a1.55,1.55,0,0,1,.8.2c0.2,0.1-2.8.3-2.8,0.6s3,0.4,2.9.5A4.34,4.34,0,0,1,397.42,62Zm-1.1-.1H397a0.75,0.75,0,0,0,.5-0.1,0.85,0.85,0,0,0,0-.8,0.75,0.75,0,0,0-.5-0.1h-0.7v1Z" transform="translate(-3 -3.22)" fill="#141115"/></svg>