<svg width="1200" height="296" viewBox="0 0 1200 296" xmlns="http://www.w3.org/2000/svg"><title>svg/logo/logo</title><path d="M486.42 158.94c0-29.085-7.73-42.08-31.535-42.08-22.878 0-30.917 12.995-30.917 41.457 0 29.394 8.348 42.39 31.535 42.39 23.497 0 30.917-13.615 30.917-41.768zm36.172-.623c0 43.937-17.932 74.255-68.016 74.255-47.92 0-66.78-30.63-66.78-73.633 0-43.934 18.24-73.946 68.016-73.946 48.23 0 66.78 30.32 66.78 73.323zm87.92-40.837c-12.983 0-22.258 5.878-27.514 11.757v60.642c4.33 4.02 12.677 10.208 27.515 10.208 25.043 0 31.844-17.328 31.844-41.15 0-23.823-6.492-41.458-31.844-41.458zM532.606 296v-28.154l16.076-4.334V118.1h-20.095V88.087h51.63v15.78c7.112-9.283 17.314-18.874 38.956-18.874 38.955 0 59.36 26.917 59.36 73.945 0 46.098-19.17 73.632-59.36 73.632-19.168 0-29.68-7.425-36.172-14.54v47.954h29.99V296h-80.383zM755.44 117.48c-15.147 0-23.497 5.878-27.515 10.21v60.33c4.947 5.88 14.533 12.068 27.207 12.068 25.662 0 32.153-18.256 32.153-41.77 0-23.822-6.802-40.838-31.844-40.838zm-27.515-17.635c6.183-7.115 17.006-14.85 35.864-14.85 40.5 0 59.358 27.535 59.358 73.322 0 44.553-20.405 74.255-59.36 74.255-21.33 0-33.39-6.804-41.117-14.23L704.74 229.17h-11.13V43.846h-20.405V13.834h54.722v86.01zm197.054 44.243c.306-1.86.306-3.404.306-4.334 0-17.323-11.744-25.987-25.97-25.987-19.474 0-26.895 13.614-28.132 30.32h53.795zM946 189.878l11.13 27.228c-14.84 9.28-35.245 15.466-53.794 15.466-48.848 0-68.943-30.94-68.943-73.944 0-40.22 21.638-73.634 64.92-73.634 42.977 0 59.362 30.63 59.362 60.948 0 7.736-.927 18.255-2.474 24.135h-85.33c.622 19.802 11.13 31.866 32.775 31.866 14.84 0 29.368-4.33 42.354-12.064zm75.367 13.92c12.983 0 25.042-6.186 32.463-12.993v-21.657l-17.624 2.167c-24.734 2.783-31.845 7.734-31.845 17.942 0 9.592 5.874 14.542 17.004 14.542zm-10.822-65.898h-30.3c-3.09-5.878-4.636-12.375-4.636-19.183 0-19.49 17.933-33.723 56.887-33.723 41.735 0 56.575 12.375 56.575 52.595v54.764c0 5.876 3.094 8.352 8.04 8.352 3.09 0 5.873-.31 8.346-.928v29.392c-5.872 1.237-13.29 1.856-20.095 1.856-17.93 0-27.207-8.662-29.06-21.658-7.73 11.45-23.188 23.204-46.376 23.204-26.28 0-42.355-15.466-42.355-40.53 0-30.938 26.9-40.838 68.634-43.933l17.623-1.857V117.79c-4.64-1.238-15.15-1.856-21.334-1.856-9.895 0-13.916.31-21.952 1.855v20.11zm151.116 45.79c0 11.447 6.49 16.398 16.076 16.398 4.947 0 14.84-.93 21.33-2.167l.93 30.324c-7.42 2.474-22.567 4.328-32.77 4.328-28.755 0-39.884-18.872-39.884-43.932V118.1h-25.66V91.18l25.66-3.092V53.435l34.318-5.57V88.09h33.39v30.01h-33.39v65.592zm-1048.34-29.952c-43.43-15.908-65.97-20.6-74.325-21.942 4.768-7.667 10.447-14.803 16.987-21.202l158.772-.083c9.514 9.29 17.246 20.12 22.947 31.912-15.243 11.745-57.365 35.863-124.384 11.316zm87.585-15.134h-28.117c-4.377 0-7.96 3.402-7.96 7.564 0 4.163 3.583 7.57 7.96 7.57h28.116c4.378 0 7.96-3.407 7.96-7.57 0-4.162-3.582-7.564-7.96-7.564zm0 46.23h-28.117c-4.377 0-7.96-3.406-7.96-7.572 0-4.16 3.583-7.56 7.96-7.56h28.116c4.378 0 7.96 3.4 7.96 7.56 0 4.166-3.582 7.572-7.96 7.572zm0 30.97h-28.117c-4.377 0-7.96-3.41-7.96-7.57 0-4.162 3.583-7.562 7.96-7.562h28.116c4.378 0 7.96 3.4 7.96 7.56 0 4.162-3.582 7.57-7.96 7.57zm0 31.092h-28.117c-4.377 0-7.96-3.407-7.96-7.57 0-4.157 3.583-7.562 7.96-7.562h28.116c4.378 0 7.96 3.405 7.96 7.563 0 4.162-3.582 7.57-7.96 7.57zm25.455-155.322l-3.115-2.824-175.785.094-3.105 2.82C16.168 117.315 0 153.872 0 191.97c0 38.164 16.208 74.76 44.47 100.41l3.107 2.82 175.784-.09 3.107-2.826c28.192-25.648 44.358-62.203 44.358-100.314 0-38.157-16.204-74.75-44.46-100.394zM68.688 55.38l-.56-1.428c-.655-1.368-1.44-2.83-2.347-4.378-.48-.842-.885-1.504-1.172-1.955H64.6l-.456-.71c-4.8-7.505-11.178-15.01-16.64-19.578l-10.066-8.44L215.47 31.723c1.338.095 2.25.342 2.775.527l1.447.508-.506 1.45c-.273.784-.71 1.62-1.302 2.486l-1.237 1.824c-3.254 4.814-9.304 16.48-11.564 20.9l-134.818.034c-.454-1.327-.965-2.664-1.577-4.073zm212.09 32.23c-11.023-13.5-23.33-23.25-35.615-28.205l-19.287.005.31-.533c2.5-4.313 6.8-11.793 6.86-11.894 6.08-8.976 7.766-16.415 5.006-22.106-2.973-6.136-11.52-10.73-21.268-11.436L31.822.106C30.786.035 29.808 0 28.888 0 17.32 0 13.51 5.745 12.264 9.172c-2.286 6.288.51 12.964 8.145 19.357.083.08 8.8 8.155 16.947 16.55 3.842 3.802 6.908 8.637 9.11 14.377l.307 19.126 187.685-.262s14.455 6.22 28.71 23.683c20.144 24.69 38.44 69.726 30.107 122.714h22.96c8.155-59.004-12.88-109.43-35.46-137.107z" fill="#3360A3" fill-rule="evenodd"/></svg>
